<?xml version="1.0" standalone="no"?><!DOCTYPE svg PUBLIC "-//W3C//DTD SVG 1.1//EN" "http://www.w3.org/Graphics/SVG/1.1/DTD/svg11.dtd"><svg t="1678519020803" class="icon" viewBox="0 0 1427 1024" version="1.1" xmlns="http://www.w3.org/2000/svg" p-id="3594" xmlns:xlink="http://www.w3.org/1999/xlink" width="278.7109375" height="200"><path d="M1351.064977 123.555737h-107.862689V92.969424l-36.660345-14.396103C1199.192582 75.698424 1024.753324 7.932987 872.167608 7.932987c-71.440118 0-128.592212 14.720339-170.786193 43.880012-42.193982-29.159673-99.302844-43.880012-170.764578-43.880012-152.585716 0-327.024974 67.765437-334.374335 70.640334l-36.638729 14.396103v30.586313H54.291745A43.318002 43.318002 0 0 0 10.973743 166.873739v797.81643c0 23.928657 19.389345 43.318002 43.318002 43.318001h1296.773232a43.318002 43.318002 0 0 0 43.318002-43.318001V166.873739a43.318002 43.318002 0 0 0-43.318002-43.318002z m-165.620024 8.776003v633.169114c-89.446053-30.629545-327.003358-100.03778-455.184871-25.203987V102.566825c36.141566-26.998096 87.025087-36.898118 141.907526-36.898118 143.420629 0 313.277345 66.663033 313.277345 66.663033zM1120.035635 804.971249H739.295474c74.293399-70.467408 258.243596-36.595497 380.740161 0zM530.616837 65.668707c54.860823 0 105.765959 9.921638 141.88591 36.898118v637.730042c-128.181512-74.790562-365.695585-5.425558-455.163254 25.203987V132.33174s169.856715-66.663033 313.277344-66.663033z m132.850518 739.302542H282.662347c122.453333-36.638729 306.489993-70.575487 380.805008 0z m644.27962 116.400918H97.609746V210.170125h61.994027v652.536844H1243.202288V210.170125h64.544687v711.202042z" fill="#c7c7c7" p-id="3595"></path></svg>